<?xml version="1.0" encoding="utf-8"?>
<!-- Generator: Adobe Illustrator 17.0.0, SVG Export Plug-In . SVG Version: 6.00 Build 0)  -->
<!DOCTYPE svg PUBLIC "-//W3C//DTD SVG 1.1//EN" "http://www.w3.org/Graphics/SVG/1.1/DTD/svg11.dtd">
<svg version="1.1" id="Layer_1" xmlns="http://www.w3.org/2000/svg" xmlns:xlink="http://www.w3.org/1999/xlink" x="0px" y="0px"
	 width="500px" height="150px" viewBox="0 0 500 150" enable-background="new 0 0 500 150" xml:space="preserve">
<g>
	<g>
		<path fill="#FFB600" d="M420.463,17.35c1.536-1.599,3.278-3.183,5.231-4.752c1.952-1.568,4.128-2.976,6.528-4.224
			s5.023-2.24,7.872-2.976c2.847-0.735,5.967-1.104,9.359-1.104c3.903,0,7.712,0.624,11.425,1.872
			c3.711,1.248,6.991,3.041,9.84,5.376c2.847,2.337,5.136,5.184,6.864,8.544c1.728,3.36,2.592,7.185,2.592,11.472
			c0,4.8-0.785,8.976-2.353,12.528c-1.568,3.552-3.537,6.656-5.903,9.312c-2.369,2.656-4.944,5.009-7.729,7.056
			c-2.784,2.05-5.361,3.984-7.728,5.809c-2.369,1.824-4.368,3.664-6,5.52c-1.632,1.857-2.481,3.937-2.544,6.24l-0.576,16.512h-1.536
			V77.83c0-2.497,0.783-4.719,2.352-6.672c1.567-1.951,3.553-3.854,5.952-5.712c2.4-1.855,4.976-3.775,7.729-5.76
			c2.751-1.983,5.328-4.287,7.728-6.912c2.4-2.623,4.383-5.631,5.952-9.024c1.567-3.391,2.352-7.454,2.352-12.191
			c0-3.968-0.801-7.52-2.399-10.656c-1.601-3.135-3.713-5.792-6.336-7.968c-2.625-2.175-5.649-3.84-9.072-4.992
			c-3.425-1.152-6.96-1.728-10.608-1.728c-4.545,0-8.48,0.641-11.808,1.92c-3.328,1.281-6.129,2.688-8.4,4.224
			c-2.272,1.536-4.017,2.944-5.231,4.224c-1.217,1.281-1.953,1.92-2.208,1.92c-0.257,0-0.513-0.127-0.769-0.384L420.463,17.35z
			 M440.431,135.621c0-1.727,0.591-3.215,1.776-4.463c1.183-1.248,2.64-1.873,4.367-1.873c1.729,0,3.217,0.625,4.464,1.873
			c1.248,1.248,1.872,2.736,1.872,4.463c0,1.729-0.624,3.186-1.872,4.369c-1.247,1.184-2.735,1.775-4.464,1.775
			c-1.728,0-3.185-0.592-4.367-1.775C441.021,138.807,440.431,137.35,440.431,135.621z"/>
	</g>
</g>
<g>
	<line fill="none" stroke="#FFB600" stroke-width="2" stroke-miterlimit="10" x1="73" y1="136" x2="444" y2="136"/>
</g>
</svg>
