<?xml version="1.0" encoding="utf-8"?>
<!-- Generator: Adobe Illustrator 17.0.0, SVG Export Plug-In . SVG Version: 6.00 Build 0)  -->
<!DOCTYPE svg PUBLIC "-//W3C//DTD SVG 1.1//EN" "http://www.w3.org/Graphics/SVG/1.1/DTD/svg11.dtd">
<svg version="1.1" id="Layer_1" xmlns="http://www.w3.org/2000/svg" xmlns:xlink="http://www.w3.org/1999/xlink" x="0px" y="0px"
	 width="410px" height="252px" viewBox="0 0 410 252" enable-background="new 0 0 410 252" xml:space="preserve">
<pattern  x="29" y="22.5" width="11.187" height="11.187" patternUnits="userSpaceOnUse" id="New_Pattern_6" viewBox="0 -11.187 11.187 11.187" overflow="visible">
	<g>
		<polygon fill="none" points="0,-11.187 11.187,-11.187 11.187,0 0,0 		"/>
		<polygon fill="#FFB600" points="10.391,-2.797 8.391,-2.797 8.391,-4.797 10.391,-4.797 		"/>
		<polygon fill="#FFB600" points="4.797,-2.797 2.797,-2.797 2.797,-4.797 4.797,-4.797 		"/>
		<polygon fill="#FFB600" points="7.594,-8.391 5.594,-8.391 5.594,-10.391 7.594,-10.391 		"/>
		<polygon fill="#FFB600" points="2,-8.391 0,-8.391 0,-10.391 2,-10.391 		"/>
	</g>
</pattern>
<g>
	<path fill="url(#New_Pattern_6)" d="M222.994,32.088c-0.962-1.508-1.275-2.523-1.275-2.523l0.456-0.429
		c0,0,0.912,0.379,2.483,1.028c0.742,0.3,1.651,0.662,2.693,1.065c1.025,0.379,2.144,0.809,3.342,1.105
		c0.582,0.183,1.195,0.366,1.807,0.429c0.31,0.04,0.622,0.13,0.922,0.183c0.313,0.027,0.613,0.04,0.922,0.076
		c1.235,0.157,2.38,0.027,3.628-0.037c0.572-0.21,1.221-0.273,1.847-0.546c0.586-0.339,1.338-0.533,1.871-0.975
		c0.286-0.196,0.572-0.389,0.899-0.599c0.326-0.183,0.676-0.326,1.029-0.702l2.197-1.861c0.023-0.023-0.13,0.196-0.053,0.093
		l0.053-0.053l0.063-0.05l0.156-0.13l0.286-0.263l0.572-0.506l1.092-1.039c0.689-0.702,1.561-1.262,2.25-1.937
		c0.676-0.702,1.598-1.145,2.327-1.821c0.779-0.613,1.691-1.082,2.563-1.678c1.844-0.859,4.004-1.508,5.941-1.235
		c0.479,0.05,0.949,0.13,1.415,0.206c0.443,0.13,0.872,0.286,1.288,0.443c0.845,0.273,1.588,0.676,2.277,1.078
		c1.378,0.792,2.483,1.717,3.355,2.613c0.869,0.899,1.535,1.771,2.001,2.536c0.496,0.742,0.782,1.405,0.989,1.861
		c0.17,0.453,0.246,0.702,0.246,0.702l-0.453,0.439c0,0-1.002-0.336-2.523-0.975c-0.742-0.296-1.638-0.676-2.679-1.092
		c-1.002-0.403-2.094-0.859-3.252-1.248c-0.582-0.22-1.182-0.443-1.781-0.582c-0.31-0.08-0.609-0.196-0.909-0.286
		c-0.313-0.053-0.626-0.13-0.922-0.236c-1.248-0.403-2.536-0.806-4.137-0.975c-0.726,0.106-1.598,0.067-2.367,0.379
		c-0.726,0.376-1.558,0.662-2.157,1.325c-0.586,0.636-1.262,1.195-1.678,2.004l-0.612,1.208l-0.273,0.609l-0.143,0.3l-0.063,0.157
		l-0.027,0.067l-0.013,0.037l-0.013,0.027c0.053-0.09-0.09,0.143-0.09,0.13l-1.185,2.613c-0.39,0.845-1.285,1.807-2.014,2.64
		c-0.742,0.925-1.728,1.445-2.613,2.16c-0.935,0.649-2.054,1.025-3.096,1.495c-2.197,0.636-4.497,0.742-6.434,0.233
		c-0.988-0.22-1.901-0.506-2.706-0.922c-0.832-0.35-1.561-0.792-2.237-1.222c-1.351-0.899-2.43-1.847-3.275-2.783
		C224.112,33.725,223.476,32.843,222.994,32.088L222.994,32.088z M318,180.794v53.986H91.543v-53.986h15.421v-60.656l43.477-30.489
		v30.489l43.454-30.489v30.489l43.467-30.489v59.94h15.002l8.155-106.031h24.858l7.126,106.031h16.719v31.205H318z M162.534,157.481
		h-34.181v31.545h34.181V157.481z M221.422,157.481h-34.184v31.545h34.184V157.481z M281.05,157.481h-34.184v31.545h34.184V157.481z
		 M281.05,157.481"/>
</g>
</svg>
