<?xml version="1.0" encoding="utf-8"?>
<!-- Generator: Adobe Illustrator 17.0.0, SVG Export Plug-In . SVG Version: 6.00 Build 0)  -->
<!DOCTYPE svg PUBLIC "-//W3C//DTD SVG 1.1//EN" "http://www.w3.org/Graphics/SVG/1.1/DTD/svg11.dtd">
<svg version="1.1" id="Layer_1" xmlns="http://www.w3.org/2000/svg" xmlns:xlink="http://www.w3.org/1999/xlink" x="0px" y="0px"
	 width="410px" height="252px" viewBox="0 0 410 252" enable-background="new 0 0 410 252" xml:space="preserve">
<pattern  x="29" y="22.5" width="11.187" height="11.187" patternUnits="userSpaceOnUse" id="New_Pattern_6" viewBox="0 -11.187 11.187 11.187" overflow="visible">
	<g>
		<polygon fill="none" points="0,-11.187 11.187,-11.187 11.187,0 0,0 		"/>
		<polygon fill="#FFB600" points="10.391,-2.797 8.391,-2.797 8.391,-4.797 10.391,-4.797 		"/>
		<polygon fill="#FFB600" points="4.797,-2.797 2.797,-2.797 2.797,-4.797 4.797,-4.797 		"/>
		<polygon fill="#FFB600" points="7.594,-8.391 5.594,-8.391 5.594,-10.391 7.594,-10.391 		"/>
		<polygon fill="#FFB600" points="2,-8.391 0,-8.391 0,-10.391 2,-10.391 		"/>
	</g>
</pattern>
<g opacity="0.8">
	<path fill="url(#New_Pattern_6)" d="M64.541,234.463c11.674-6.585,24.058-10.565,36.617-13.981c3.239-0.881,4.34-2.273,4.324-5.605
		c-0.119-25.42,0.005-50.841-0.143-76.26c-0.021-3.639,0.904-5.592,4.558-6.756c7.435-2.368,14.715-5.223,22.051-7.899
		c1.672-0.61,3.307-1.136,4.953,0.044c3.349,2.403,3.539,0.31,3.525-2.395c-0.048-8.928-0.018-17.856-0.017-26.784
		c0.001-6.696,0.1-13.394-0.044-20.087c-0.059-2.76,0.908-4.231,3.529-5.271c12.214-4.844,24.308-9.991,36.542-14.781
		c3.328-1.303,4.996-3.168,5.129-6.734c0.267-7.179,0.734-14.351,1.08-21.528c0.171-3.544,0.822-6.426,5.131-7.355
		c3.027-0.653,3.724,0.282,3.87,2.989c0.392,7.296,1.084,14.578,1.366,21.876c0.126,3.258,1.407,3.735,3.812,2.222
		c8.13-5.111,16.268-4.089,24.734-0.757c5.517,2.171,11.3,3.756,17.074,5.152c3.663,0.886,4.573,2.79,4.516,6.301
		c-0.185,11.405,0.001,22.816-0.123,34.223c-0.027,2.511,0.673,3.611,3.2,4.394c14.443,4.477,28.776,9.307,43.226,13.76
		c3.681,1.134,5.026,2.819,5.004,6.794c-0.169,31.744-0.102,63.488-0.089,95.233c0.003,7.298-0.611,6.337,6.18,8.115
		c13.091,3.429,25.969,7.485,38.314,13.091c0.835,0.379,1.946,0.462,2.381,1.598c-1.3,0.736-2.677,0.383-3.985,0.383
		c-57.909,0.021-115.818,0.018-173.726,0.018c-0.744,0-1.489-0.037-2.232-0.003c-2.868,0.132-3.109-1.099-1.963-3.4
		c3.266-6.559,7.096-12.788,10.895-19.039c0.431-0.709,1.335-1.409,0.857-2.302c-0.485-0.907-1.557-0.47-2.381-0.504
		c-2.417-0.099-4.624,0.668-6.802,1.639c-13.282,5.92-25.825,13.197-38.117,20.909c-3.063,1.922-6.138,2.792-9.771,2.762
		c-16.491-0.137-32.984-0.06-49.476-0.06C67.208,234.463,65.875,234.463,64.541,234.463z M247.563,160.345
		c0-15.244-0.024-30.489,0.023-45.733c0.008-2.562-0.365-3.801-3.339-2.397c-6.272,2.961-12.64,5.725-19.019,8.452
		c-2.191,0.937-2.767,2.458-2.763,4.677c0.044,26.399,0.054,52.798-0.011,79.197c-0.007,2.696,0.911,3.698,3.648,3.772
		c5.689,0.153,11.413,0.314,17.038,1.086c3.718,0.51,4.501-0.691,4.474-4.064C247.498,190.339,247.564,175.342,247.563,160.345z
		 M212.782,83.777c0,7.555,0.051,15.11-0.028,22.664c-0.028,2.631,0.582,3.804,3.404,2.493c5.165-2.398,10.369-4.714,15.59-6.989
		c1.718-0.749,2.376-1.927,2.369-3.757c-0.039-10.651-0.044-21.302,0.002-31.953c0.009-2.07-0.847-3.13-2.841-3.687
		c-5.006-1.398-9.992-2.882-14.938-4.48c-2.658-0.859-3.615-0.085-3.584,2.673C212.841,68.419,212.786,76.098,212.782,83.777z
		 M156.553,197.025c11.082-0.693,22.561-1.436,34.044-2.121c7.433-0.443,7.353-0.403,7.103-7.77
		c-0.085-2.491-0.865-3.038-3.373-2.81c-13.548,1.229-27.114,2.272-40.682,3.258c-2.255,0.164-3.333,0.787-3.443,3.234
		C149.93,196.848,150.074,197.098,156.553,197.025z M197.661,100.498c0.005-6.142,0.011-6.123-5.2-4.537
		c-3.664,1.115-7.35,2.159-11.022,3.25c-9.238,2.745-18.478,5.488-27.709,8.256c-3.364,1.008-4.621,3.723-3.367,8.019
		c1.092,3.741,3.772,1.25,5.473,0.812c12.322-3.177,24.548-6.725,36.883-9.848C196.485,105.496,198.553,104.015,197.661,100.498z
		 M197.626,160.233c0-1.576,0.017-2.691-0.004-3.805c-0.03-1.582-0.768-2.156-2.391-1.903c-14.054,2.189-28.131,4.234-42.164,6.544
		c-4.546,0.748-2.547,4.679-2.741,7.316c-0.222,3.024,2.265,2.022,3.736,1.843c12.887-1.567,25.745-3.382,38.647-4.8
		C196.54,165.007,198.603,163.939,197.626,160.233z M197.66,130.422c0.013-6.166,0.015-6.156-5.48-4.909
		c-12.303,2.794-24.61,5.566-36.911,8.37c-5.202,1.186-5.092,1.211-5.074,6.672c0.009,2.763,0.683,3.708,3.7,3.075
		c12.95-2.716,25.93-5.302,38.944-7.694C196.573,135.25,198.548,133.846,197.66,130.422z M197.66,70.878
		c0.013-6.279-0.007-6.334-5.448-4.336c-12.434,4.565-24.798,9.331-37.299,13.704c-3.699,1.294-4.907,3.186-4.8,7.022
		c0.102,3.644,1.255,3.76,4.207,2.725c12.85-4.507,25.729-8.934,38.669-13.172C196.417,75.698,198.607,74.268,197.66,70.878z
		 M291.34,142.092c0.43-2.6-1.106-3.42-3.315-3.923c-8.555-1.952-17.075-4.061-25.639-5.974c-1.387-0.31-3.689-1.868-4.085,1.045
		c-0.311,2.285-0.951,5.064,2.744,5.82c9.08,1.857,18.133,3.847,27.186,5.838C290.699,145.44,291.805,144.682,291.34,142.092z
		 M258.229,113.964c-0.414,2.598,0.837,3.743,3.31,4.381c8.752,2.26,17.445,4.747,26.189,7.04c1.109,0.291,2.945,1.54,3.434-0.497
		c0.456-1.9,1.047-4.293-1.572-5.497c-0.559-0.257-1.166-0.417-1.76-0.589c-8.68-2.527-17.383-4.976-26.03-7.611
		C258.982,110.332,257.753,110.897,258.229,113.964z M261.791,152.832c-2.374-0.274-3.587,0.173-3.541,1.994
		c0.049,1.95-0.887,4.46,2.31,4.971c9.26,1.478,18.519,2.965,27.786,4.403c1.414,0.219,2.919,0.088,2.95-1.839
		c0.027-1.706,0.896-3.96-1.884-4.476C279.947,156.127,270.474,154.416,261.791,152.832z M288.819,183.621
		c0.89,0.049,2.488,0.032,2.552-2.341c0.056-2.06,0.192-3.906-2.73-4.243c-9.198-1.061-18.374-2.307-27.56-3.47
		c-2.085-0.264-2.989,0.751-2.889,2.78c0.093,1.89-0.554,4.064,2.555,4.36C269.841,181.571,278.921,182.582,288.819,183.621z
		 M287.866,202.908c1.053-0.076,3.38,0.71,3.582-2.726c0.186-3.158-1.441-3.729-3.996-3.899c-8.752-0.584-17.498-1.257-26.245-1.923
		c-2.29-0.174-3.102,0.925-3.039,3.087c0.059,2.036-0.169,3.992,2.852,4.115C269.664,201.91,278.302,202.416,287.866,202.908z
		 M115.088,159.694c3.952-0.972,8.419-1.952,12.806-3.212c1.619-0.465,1.288-2.197,1.221-3.541
		c-0.051-1.025-0.648-1.739-1.675-1.475c-4.662,1.199-9.331,2.393-13.926,3.82c-1.393,0.433-1.206,2.032-0.955,3.258
		C112.772,159.589,113.647,159.772,115.088,159.694z M113.357,175.13c5.252-0.814,9.543-1.42,13.81-2.168
		c1.883-0.33,2.085-1.858,1.976-3.462c-0.096-1.408-0.913-2.065-2.223-1.834c-4.266,0.75-8.529,1.534-12.766,2.433
		c-1.68,0.357-1.803,1.825-1.742,3.267C112.465,174.614,113.05,175.188,113.357,175.13z M129.101,137.278
		c-0.217-0.518,0.473-2.53-1.638-1.907c-4.629,1.365-9.204,2.933-13.736,4.595c-1.808,0.663-1.579,2.461-1.084,3.848
		c0.557,1.56,1.896,0.69,2.872,0.404c3.685-1.077,7.346-2.24,11.017-3.364C128.065,140.385,129.302,139.677,129.101,137.278z
		 M125.29,183.908c-3.425,0.457-7.196,0.957-10.966,1.466c-1.823,0.246-1.984,1.551-1.885,3.008
		c0.114,1.661,1.243,1.987,2.594,1.865c3.787-0.343,7.571-0.723,11.353-1.116c1.833-0.19,2.944-1.002,2.773-3.097
		C128.96,183.598,127.224,183.941,125.29,183.908z M120.442,205.248c0-0.022,0-0.044,0-0.066c2.217,0,4.437,0.062,6.651-0.018
		c2.117-0.077,2.071-1.668,2.086-3.207c0.017-1.773-1.063-1.901-2.458-1.861c-3.941,0.115-7.884,0.162-11.826,0.208
		c-1.659,0.019-2.493,0.751-2.487,2.466c0.006,1.703,0.832,2.481,2.489,2.478C116.745,205.246,118.594,205.248,120.442,205.248z"/>
</g>
</svg>
