<?xml version="1.0" encoding="utf-8"?>
<!-- Generator: Adobe Illustrator 17.0.0, SVG Export Plug-In . SVG Version: 6.00 Build 0)  -->
<!DOCTYPE svg PUBLIC "-//W3C//DTD SVG 1.1//EN" "http://www.w3.org/Graphics/SVG/1.1/DTD/svg11.dtd">
<svg version="1.1" id="Layer_1" xmlns="http://www.w3.org/2000/svg" xmlns:xlink="http://www.w3.org/1999/xlink" x="0px" y="0px"
	 width="410px" height="252px" viewBox="0 0 410 252" enable-background="new 0 0 410 252" xml:space="preserve">
<pattern  x="29" y="22.5" width="11.187" height="11.187" patternUnits="userSpaceOnUse" id="New_Pattern_6" viewBox="0 -11.187 11.187 11.187" overflow="visible">
	<g>
		<polygon fill="none" points="0,-11.187 11.187,-11.187 11.187,0 0,0 		"/>
		<polygon fill="#FFB600" points="10.391,-2.797 8.391,-2.797 8.391,-4.797 10.391,-4.797 		"/>
		<polygon fill="#FFB600" points="4.797,-2.797 2.797,-2.797 2.797,-4.797 4.797,-4.797 		"/>
		<polygon fill="#FFB600" points="7.594,-8.391 5.594,-8.391 5.594,-10.391 7.594,-10.391 		"/>
		<polygon fill="#FFB600" points="2,-8.391 0,-8.391 0,-10.391 2,-10.391 		"/>
	</g>
</pattern>
<path opacity="0.8" fill="url(#New_Pattern_6)" d="M203.817,92.49v106.273l84.606-16.056v-51.78c0-2.168,1.889-3.85,4.042-3.604
	l10.408,1.612c1.832,0.209,3.214,1.76,3.214,3.603v60.154c0,1.71-1.193,3.188-2.865,3.546l-92.618,19.915
	c-4.475,0.962-9.102,0.973-13.583,0.03l-91.624-19.273c-1.643-0.346-2.836-1.775-2.879-3.457l-1.584-61.091
	c-0.049-1.916,1.399-3.54,3.309-3.707l77.83-6.839c1.349-0.118,2.52-0.979,3.036-2.232l11.725-28.475
	C198.347,87.435,203.817,88.517,203.817,92.49L203.817,92.49z M100.055,57.696l-24.423,52.205c-1.193,2.552,0.849,5.429,3.65,5.147
	l91.722-9.268c1.296-0.132,2.423-0.948,2.95-2.138l29.514-66.488L102.685,55.665C101.531,55.878,100.552,56.633,100.055,57.696
	L100.055,57.696z M203.467,37.154l31.228,68.566c0.546,1.198,1.698,2.007,3.011,2.113l91.547,7.362
	c2.759,0.222,4.741-2.604,3.592-5.12L308.97,57.732c-0.494-1.083-1.488-1.854-2.659-2.065L203.467,37.154z M203.467,37.154"/>
</svg>
