<?xml version="1.0" encoding="utf-8"?>
<!-- Generator: Adobe Illustrator 17.0.0, SVG Export Plug-In . SVG Version: 6.00 Build 0)  -->
<!DOCTYPE svg PUBLIC "-//W3C//DTD SVG 1.1//EN" "http://www.w3.org/Graphics/SVG/1.1/DTD/svg11.dtd">
<svg version="1.1" id="Layer_1" xmlns="http://www.w3.org/2000/svg" xmlns:xlink="http://www.w3.org/1999/xlink" x="0px" y="0px"
	 width="410px" height="252px" viewBox="0 0 410 252" enable-background="new 0 0 410 252" xml:space="preserve">
<pattern  x="29" y="22.5" width="11.187" height="11.187" patternUnits="userSpaceOnUse" id="New_Pattern_6" viewBox="0 -11.187 11.187 11.187" overflow="visible">
	<g>
		<polygon fill="none" points="0,-11.187 11.187,-11.187 11.187,0 0,0 		"/>
		<polygon fill="#FFB600" points="10.391,-2.797 8.391,-2.797 8.391,-4.797 10.391,-4.797 		"/>
		<polygon fill="#FFB600" points="4.797,-2.797 2.797,-2.797 2.797,-4.797 4.797,-4.797 		"/>
		<polygon fill="#FFB600" points="7.594,-8.391 5.594,-8.391 5.594,-10.391 7.594,-10.391 		"/>
		<polygon fill="#FFB600" points="2,-8.391 0,-8.391 0,-10.391 2,-10.391 		"/>
	</g>
</pattern>
<g opacity="0.8">
	<path fill="url(#New_Pattern_6)" d="M313.846,130.948h-4.155v-6.114c0-5.258-4.28-9.536-9.539-9.536
		c-3.3,0-6.214,1.686-7.929,4.241L212.45,76.185c2.058-2.077,3.334-4.936,3.334-8.087c0-4.236-2.319-8.115-6.051-10.123
		c-1.077-0.58-1.775-1.92-1.775-3.413V43.775c4.545-1.535,7.826-5.834,7.826-10.89c0-6.338-5.156-11.494-11.494-11.494
		c-6.338,0-11.494,5.156-11.494,11.494c0,5.055,3.284,9.355,7.826,10.89v10.788c0,4.22,2.159,8,5.634,9.872
		c1.352,0.729,2.192,2.133,2.192,3.666c0,2.293-1.865,4.155-4.158,4.155c-2.293,0-4.158-1.863-4.158-4.155
		c0-2.027-1.64-3.668-3.668-3.668c-2.025,0-3.668,1.641-3.668,3.668c0,3.103,1.24,5.921,3.246,7.991l-80.753,42.132
		c-1.736-1.801-4.167-2.925-6.861-2.925c-5.258,0-9.536,4.277-9.536,9.536v6.114h-4.158c-2.025,0-3.668,1.643-3.668,3.668v93.908
		c0,2.025,1.643,3.668,3.668,3.668h219.114c2.028,0,3.668-1.643,3.668-3.668v-93.908
		C317.514,132.591,315.874,130.948,313.846,130.948L313.846,130.948z M204.289,28.727c2.293,0,4.158,1.865,4.158,4.158
		c0,2.293-1.865,4.158-4.158,4.158c-2.293,0-4.158-1.865-4.158-4.158C200.131,30.593,201.997,28.727,204.289,28.727L204.289,28.727z
		 M300.153,122.635c1.213,0,2.202,0.986,2.202,2.199v6.114h-4.404v-6.095c0-0.007,0.002-0.014,0.002-0.021
		C297.953,123.619,298.94,122.635,300.153,122.635L300.153,122.635z M117.964,130.948v-5.846l86.289-45.022l86.36,46.937v3.931
		H117.964z M106.227,124.834c0-1.213,0.986-2.199,2.199-2.199c1.216,0,2.202,0.986,2.202,2.199v6.114h-4.401V124.834z
		 M310.178,138.284v70.919h-8.313v-58.935c0-2.025-1.643-3.668-3.668-3.668c-2.025,0-3.668,1.643-3.668,3.668v58.935h-8.316v-58.935
		c0-2.025-1.643-3.668-3.668-3.668c-2.025,0-3.668,1.643-3.668,3.668v58.935h-8.313v-58.935c0-2.025-1.643-3.668-3.668-3.668
		c-2.028,0-3.668,1.643-3.668,3.668v58.935h-8.316v-58.935c0-2.025-1.643-3.668-3.668-3.668c-2.025,0-3.668,1.643-3.668,3.668
		v58.935h-8.316v-58.935c0-2.025-1.64-3.668-3.668-3.668c-2.025,0-3.668,1.643-3.668,3.668v58.935h-8.313v-58.935
		c0-2.025-1.643-3.668-3.668-3.668c-2.025,0-3.668,1.643-3.668,3.668v58.935h-8.316v-58.935c0-2.025-1.643-3.668-3.668-3.668
		c-2.025,0-3.668,1.643-3.668,3.668v58.935h-8.313v-58.935c0-2.025-1.643-3.668-3.668-3.668c-2.028,0-3.668,1.643-3.668,3.668
		v58.935h-8.316v-58.935c0-2.025-1.643-3.668-3.668-3.668s-3.668,1.643-3.668,3.668v58.935h-8.316v-58.935
		c0-2.025-1.64-3.668-3.668-3.668c-2.025,0-3.668,1.643-3.668,3.668v58.935h-8.313v-58.935c0-2.025-1.643-3.668-3.668-3.668
		c-2.025,0-3.668,1.643-3.668,3.668v58.935h-8.316v-58.935c0-2.025-1.643-3.668-3.668-3.668c-2.025,0-3.668,1.643-3.668,3.668
		v58.935h-8.313v-58.935c0-2.025-1.643-3.668-3.668-3.668c-2.028,0-3.668,1.643-3.668,3.668v58.935H98.4v-70.919H310.178z
		 M98.4,224.855v-8.316h211.777v8.316H98.4z M98.4,224.855"/>
</g>
</svg>
